<svg xmlns="http://www.w3.org/2000/svg" width="7143.308" height="2862.695" viewBox="0 0 7143.308 2862.695">
  <g id="logo_tostado" transform="translate(-1194.717 -2085.115)">
    <path id="Path_1" data-name="Path 1" d="M4390.19,4435.168h55.077l93.628-112.713h-93.628Z" fill="#E5E4E3"/>
    <g id="Group_1" data-name="Group 1">
      <path id="Path_2" data-name="Path 2" d="M1194.717,2459.524q135.732-6.568,271.561-12.638-1.995,869.793-4,1739.587,168.478-44.3,337.837-84,3.839-835.023,7.679-1670.048,135.953-5.439,271.977-10.378.914-153.546,1.826-307.095-443.486,1.423-886.882,3.316Z" fill="#E5E4E3"/>
      <path id="Path_3" data-name="Path 3" d="M3080.739,3517.608q3.839-526.644,7.687-1053.284,2.7-377.775-441.276-379.191-443.11-2.027-445.659,410.515-3.661,570.144-7.317,1140.288c-1.677,276.4,143.957,380.67,439.073,328.862C2929.232,3913.789,3078.963,3770.112,3080.739,3517.608Zm-342.821,39.781c-.469,67.937-34.714,106.422-102.517,116.151-67.145,9.684-100.385-19.808-99.89-89.139q4.008-551.2,8.015-1102.395.761-103.944,100.446-106.464c.688-.019,1.368-.037,2.052-.052q100.712-1.6,99.977,99.366Q2741.958,3016.122,2737.918,3557.389Z" fill="#E5E4E3"/>
      <path id="Path_4" data-name="Path 4" d="M3718.261,2085.133q-442.945-1.125-445.625,374.337-.561,79.71-1.111,159.424c-1.107,162.06,91.871,294.732,279.637,395.61,175.417,95.569,263.188,180.135,262.795,254.626q-.483,94.185-.964,188.366c-.34,63.351-34.26,97.086-101.882,101.813-68.248,4.833-102.191-24.431-101.813-88.47q.714-120.562,1.433-241.118-171.936,10.221-343.62,23.483-.851,123.031-1.712,246.065c-1.734,251.032,145.941,355.785,444.212,330.351,297.637-24.449,447.292-148.694,448.014-388.805q.351-102.993.711-205.983.8-226.634-281.4-381.373c-175.564-97.288-262.851-181.246-262.488-250.384q.454-75.564.9-151.131.59-96,100.389-97.284c.688-.01,1.361-.017,2.056-.029q100.82-.377,100.37,93.782-.614,119.394-1.225,238.795,171.62-4.467,343.314-7.318.406-117.946.815-235.893Q4162.223,2085.625,3718.261,2085.133Z" fill="#E5E4E3"/>
      <path id="Path_5" data-name="Path 5" d="M4899.53,2373.542q136.458.249,272.911,1-.312-131.9-.631-263.794-443.61-.218-887.226.04-.369,132.1-.737,264.189,136.427-.882,272.873-1.265-.851,693.847-1.705,1387.7,172.792-2.782,345.626-.973Q4900.08,3066.99,4899.53,2373.542Z" fill="#E5E4E3"/>
      <path id="Path_6" data-name="Path 6" d="M7248.789,2522.314q-2.692-408.963-415.923-409.118-236.925-.587-473.865-1.035,6.252,873.426,12.511,1746.852,229.1,28.49,457.37,65.157c287.072,47.333,428.8-57.892,427.068-330.553Q7252.361,3057.962,7248.789,2522.314Zm-434.4,1111.613q-50.9-6.854-101.821-13.361-4.574-610.953-9.138-1221.906,50.881,1.332,101.776,2.729,100.695,2.678,101.493,106.78,3.825,518.324,7.644,1036.644C6914.843,3613.621,6881.588,3643.059,6814.394,3633.927Z" fill="#E5E4E3"/>
      <path id="Path_7" data-name="Path 7" d="M7893.978,2085.133q-443.151,2.361-440.539,415.866,3.429,577.569,6.87,1155.148c1.6,277.049,149.5,444.824,441.053,519.435,291.907,75.606,436.378-33.955,436.663-344.679V2547.257Q8338.216,2082.149,7893.978,2085.133Zm6.239,1766.532c-66.453-14.219-99.837-58.667-100.147-133.962q-2.511-600.2-5.015-1200.411-.5-112.9,99.036-109.252c.684.022,1.372.053,2.056.079q100.547,4.757,100.843,119.734,1.728,614.87,3.469,1229.741C8000.677,3834.946,7967.271,3866.074,7900.217,3851.665Z" fill="#E5E4E3"/>
      <path id="Path_8" data-name="Path 8" d="M3095.381,4862.636c-55.322,0-55.322-47.783-55.322-72.737V4616.482c0-12.438.674-34.755,16.718-49.694,9.934-9.369,25.575-14.375,38.037-14.375,49.668,0,50.879,49.8,51.607,72.225h100.115c-1.32-36.719-6.246-92.658-47.3-125.015-31.739-24.874-72.791-30.393-100.115-30.393-106.253,0-162.219,59.008-162.219,163.43v137.373c0,93.3,24.2,119.335,42.936,137.479,28.618,27.915,65.255,40.3,118.044,40.3,19.84,0,67.165-4.306,99.443-30.473,37.984-30.42,44.121-63.369,47.89-81.325,3.1-19.327,3.661-23.124,4.387-55.992h-100.68c0,49.074-12.517,82.616-53.542,82.616" fill="#E5E4E3"/>
      <path id="Path_9" data-name="Path 9" d="M3464.062,4479.1,3335.33,4935.422H3433l23.582-90.773h139.849l22.935,90.773h97.611L3585.281,4479.1Zm9.879,287.854,49.747-206.4h2.5l50.394,206.4Z" fill="#E5E4E3"/>
      <path id="Path_10" data-name="Path 10" d="M4116.692,4562.391V4479.1H3813.466V4935.42h100.6v-190.3h134.842v-84.448H3914.065v-98.284Z" fill="#E5E4E3"/>
      <path id="Path_11" data-name="Path 11" d="M4536.343,4562.391V4479.1H4229.833V4935.42h320.751v-85.229H4330.512V4742.7h141.142v-83.344H4329.3v-96.966Z" fill="#E5E4E3"/>
      <path id="Path_12" data-name="Path 12" d="M5186.979,4780.025H5086.325c0,49.075-12.438,82.617-53.328,82.617-55.321,0-55.321-47.783-55.321-72.737V4616.487c0-12.437.431-34.754,16.636-49.695,10.068-9.394,25.548-14.4,37.958-14.4,49.694,0,50.985,49.829,51.551,72.253h100.2c-1.291-36.719-6.326-92.658-47.217-125.016-31.764-24.875-72.763-30.392-100.169-30.392-106.333,0-162.218,59.008-162.218,163.4v137.4c0,93.3,24.226,119.335,42.83,137.452,28.615,27.942,65.306,40.3,118.15,40.3,19.814,0,67.139-4.281,99.5-30.447,37.877-30.42,44.149-63.369,47.838-81.325,3.095-19.328,3.715-23.124,4.254-55.993" fill="#E5E4E3"/>
      <path id="Path_13" data-name="Path 13" d="M5618.445,4850.188H5417.677V4479.1H5315.758v456.345h302.687Z" fill="#E5E4E3"/>
      <path id="Path_14" data-name="Path 14" d="M5967.823,4780.59c0,83.183-44.768,83.183-64.152,83.183-61.484,0-61.484-56.451-61.484-83.748V4479.116h-103.83v295.256c0,41.08,1.858,93.3,46.141,134.869,27.863,26.192,76.963,38.009,124.8,38.009,41.726,0,80.894-9.367,112.525-34.887,46.731-37.9,47.379-103.722,47.379-131.207v-302.04h-101.38Z" fill="#E5E4E3"/>
      <path id="Path_15" data-name="Path 15" d="M6458.862,4696.673v-3.123c35.346-8.021,62.67-43.475,62.67-98.8,0-37.9-15.534-76.452-48.941-96.992-26.219-16.179-64.043-18.655-103.238-18.655H6218.871v456.318h147.36c57.8,0,96.992-2.585,129.941-36.046,30.5-30.419,35.425-64.661,35.425-98.2,0-67.219-42.289-100.088-72.735-104.5M6316.455,4549.4h45.414c20.568,0,60.867,0,60.867,55.267,0,57.823-26,60.354-106.281,60.354Zm49.776,313.938h-49.776V4735.249c35.482,0,70.881,0,85.122,5.546,23.635,9.96,29.315,35.534,29.315,57.286,0,46.571-24.765,65.252-64.661,65.252" fill="#E5E4E3"/>
      <path id="Path_16" data-name="Path 16" d="M6132.094,3215.269q-107.854-558.927-214.97-1103.829-222.053-.306-444.1-.493-102.2,536.206-205.6,1066.177-48.255,294.961-96.855,588.944,173.813,5.439,347.5,15.526,28.3-171.885,56.5-344.354,126.765,6.327,253.419,14.625,29.418,177.672,58.907,356.432,173.908,15.078,347.47,34.842Q6183.135,3527.113,6132.094,3215.269Zm-515.324-43.846,82.647-544.952,82.645,552.606Z" fill="#E5E4E3"/>
    </g>
  </g>
</svg>
