<?xml version="1.0" encoding="utf-8"?>
<!-- Generator: Adobe Illustrator 19.2.1, SVG Export Plug-In . SVG Version: 6.00 Build 0)  -->
<svg version="1.1" id="Capa_1" xmlns="http://www.w3.org/2000/svg" xmlns:xlink="http://www.w3.org/1999/xlink" x="0px" y="0px"
	 viewBox="0 0 146.62 59.66" style="enable-background:new 0 0 146.62 59.66;" xml:space="preserve">
<style type="text/css">
	.st0{clip-path:url(#SVGID_2_);fill:#FF2A3F;}
	.st1{clip-path:url(#SVGID_2_);fill:#E5E5E4;}
</style>
<g>
	<defs>
		<rect id="SVGID_1_" x="1.328" y="-0.38" width="146.63" height="59.66"/>
	</defs>
	<clipPath id="SVGID_2_">
		<use xlink:href="#SVGID_1_"  style="overflow:visible;"/>
	</clipPath>
	<path class="st0" d="M147.958,6.46v45.98c0,3.76-3.08,6.84-6.839,6.84H8.168c-3.759,0-6.839-3.08-6.839-6.84V6.46
		c0-3.76,3.08-6.84,6.839-6.84h132.951C144.878-0.38,147.958,2.7,147.958,6.46 M118.628,36.14l1.801-9.12
		c-0.08-0.08-0.08-0.08-0.15-0.15c-0.08-0.08-0.08-0.08-0.151-0.08h-2.389c-0.08,0-0.151,0.08-0.23,0.15c0,0-0.07,0.45-0.15,0.75
		c-0.521-0.67-1.34-1.04-2.16-1.12c-0.75-0.07-1.5,0.08-2.17,0.37c-2.321,0.9-3.89,3.14-3.81,5.69c0,2.16,1.42,3.66,3.579,3.73
		c1.2,0.08,2.171-0.3,3.141-1.04c-0.07,0.22-0.07,0.52-0.15,0.74c0,0.08,0,0.15,0.08,0.15c0.07,0.08,0.07,0.08,0.15,0.08h2.39
		C118.479,36.29,118.559,36.21,118.628,36.14 M112.798,23.51c0.301-0.15,0.301-0.23,0.231-0.3c-0.08-0.08-0.151-0.15-0.231-0.15
		h-3.429c-0.08,0-0.15,0.07-0.23,0.07c0,0-3.36,4.79-3.66,5.31c-0.08-0.45-1.72-5.23-1.72-5.23c0-0.08-0.15-0.15-0.23-0.15h-2.99
		c-0.07,0-0.14,0-0.22,0.07c-0.071,0.08-0.071,0.15,0,0.23l3.139,8.07l-0.969,4.71c0,0.07,0,0.15,0.07,0.22
		c0.08,0.08,0.08,0.08,0.149,0.08h2.391c0.3,0,0.6-0.23,0.68-0.53l0.82-4.33L112.798,23.51z M100.019,27.17
		c0.08,0,0.08-0.15-0.07-0.23c-1.27-0.59-2.54-0.82-3.741-0.74c-2.089,0.15-3.29,1.42-3.139,3.21c0.07,1.12,0.75,1.94,1.94,2.54
		l1.35,0.68c0.519,0.29,0.599,0.44,0.599,0.59c0,0.38-0.449,0.53-0.679,0.53c-0.821,0.07-1.79-0.23-2.91-0.9
		c-0.08,0-0.08-0.07-0.15,0c-0.08,0-0.08,0.07-0.15,0.07l-1.05,1.87c-0.07,0.08,0,0.23,0.08,0.3c1.34,0.9,2.84,1.27,4.33,1.2
		c2.319-0.23,3.52-1.42,3.369-3.37c-0.079-1.19-0.679-1.86-1.949-2.54l-1.19-0.59c-0.67-0.38-0.75-0.45-0.75-0.68
		c0-0.07,0-0.45,0.6-0.45c0.67-0.07,1.489,0.15,2.39,0.53h0.149c0.071,0,0.071-0.08,0.151-0.15L100.019,27.17z M92.019,30.83
		c-0.07-2.76-1.94-4.56-4.86-4.56c-3.281,0-5.68,2.32-5.68,5.61c0,2.76,1.87,4.56,4.859,4.56
		C89.628,36.44,92.019,34.12,92.019,30.83 M79.319,35.84l2.54-12.78c0,0,0-0.08-0.08-0.15c-0.071-0.08-0.071-0.08-0.151-0.08h-2.389
		c-0.071,0-0.22,0.08-0.22,0.15c0,0-0.971,4.64-0.971,4.94c-0.599-1.05-1.8-1.72-3.289-1.72c-2.921,0-5.091,2.39-5.091,5.6
		c0,2.69,1.651,4.49,4.04,4.49c1.121,0,2.17-0.45,2.911-1.27c-0.071,0.22-0.071,0.45-0.14,0.75c0,0.07,0,0.14,0.069,0.14
		c0.071,0.08,0.071,0.08,0.151,0.08h2.389C79.168,35.99,79.319,35.91,79.319,35.84 M69.668,23.95c0.08-0.97-0.519-1.49-1.489-1.49
		c-1.12,0-1.95,0.82-1.95,1.94c0,0.9,0.53,1.5,1.5,1.5C68.849,25.9,69.668,25.08,69.668,23.95 M67.128,35.91l1.721-8.37
		c0-0.07,0-0.15-0.07-0.15c-0.08-0.07-0.151-0.07-0.151-0.07h-2.469c-0.071,0-0.22,0.07-0.22,0.15l-1.72,8.37
		c0,0.07,0,0.15,0.07,0.15c0.08,0.07,0.08,0.07,0.15,0.07h2.47C66.979,36.06,67.128,35.99,67.128,35.91 M64.809,23.13v-0.22
		c-0.07-0.08-0.07-0.08-0.141-0.08h-2.399c-0.07,0-0.221,0.08-0.221,0.15c0,0-0.969,4.64-0.969,4.94c-0.6-1.05-1.8-1.72-3.29-1.72
		c-2.92,0-5.081,2.39-5.081,5.6c0,2.69,1.641,4.49,4.031,4.49c1.12,0,2.17-0.45,2.92-1.27c-0.08,0.22-0.08,0.45-0.15,0.75
		c0,0.07,0,0.14,0.07,0.14c0.08,0.08,0.08,0.08,0.15,0.08h2.39c0.08,0,0.23-0.08,0.23-0.15L64.809,23.13z M51.279,32.03
		c0.15-0.68,0.23-1.2,0.23-1.72c0-2.54-1.65-4.11-4.41-4.11c-3.221,0-5.61,2.31-5.61,5.6c0,2.77,1.87,4.56,4.94,4.56
		c1.34,0,2.54-0.37,3.73-1.12c0.08-0.07,0.15-0.22,0-0.3l-1.491-1.57c-0.08-0.07-0.149-0.07-0.229,0
		c-0.67,0.38-1.271,0.53-1.941,0.53c-1.419,0-2.169-0.6-2.239-1.72h6.8C51.139,32.18,51.279,32.1,51.279,32.03 M41.269,26.87
		c0-2.54-1.721-4.04-4.641-4.04h-5c-0.08,0-0.229,0.08-0.229,0.15l-2.54,12.71c0,0.08,0,0.15,0.07,0.15
		c0.08,0.07,0.08,0.07,0.15,0.07h0.98h1.27c0,0.08,0.669,0.08,0.82-0.59c0.22-1.12,0.75-3.67,0.75-3.74h2.91
		C39.179,31.58,41.269,29.79,41.269,26.87"/>
	<path class="st1" d="M120.428,27.02l-1.801,9.12c-0.069,0.07-0.149,0.15-0.219,0.15h-2.39c-0.08,0-0.08,0-0.15-0.08
		c-0.08,0-0.08-0.07-0.08-0.15c0.08-0.22,0.08-0.52,0.15-0.74c-0.97,0.74-1.94,1.12-3.141,1.04c-2.159-0.07-3.579-1.57-3.579-3.73
		c-0.08-2.55,1.49-4.79,3.81-5.69c0.67-0.29,1.42-0.44,2.17-0.37c0.82,0.08,1.639,0.45,2.16,1.12c0.08-0.3,0.15-0.75,0.15-0.75
		c0.079-0.07,0.15-0.15,0.23-0.15h2.389c0.071,0,0.071,0,0.151,0.08C120.348,26.94,120.348,26.94,120.428,27.02 M116.689,31.58
		c0-0.37,0-0.67,0.08-1.05c-0.08-0.3-0.15-0.52-0.3-0.74c-0.15-0.23-0.381-0.38-0.6-0.45c-0.3-0.08-0.52-0.15-0.821-0.15
		c-0.38,0-0.679,0.07-0.979,0.22c-0.22,0.15-0.521,0.38-0.74,0.6c-0.23,0.22-0.38,0.52-0.531,0.82
		c-0.149,0.38-0.219,0.67-0.219,1.05c0,0.3,0,0.6,0.07,0.82c0.08,0.22,0.229,0.45,0.38,0.6c0.15,0.15,0.3,0.3,0.519,0.37
		c0.451,0.23,1.051,0.23,1.571,0c0.299-0.07,0.52-0.22,0.75-0.45c0.219-0.22,0.37-0.44,0.52-0.74
		C116.538,32.25,116.618,31.88,116.689,31.58"/>
	<path class="st0" d="M116.769,30.53c-0.08,0.38-0.08,0.68-0.08,1.05c-0.07,0.3-0.15,0.67-0.3,0.9c-0.15,0.3-0.301,0.52-0.52,0.74
		c-0.23,0.23-0.451,0.38-0.75,0.45c-0.52,0.23-1.121,0.23-1.571,0c-0.219-0.07-0.369-0.22-0.519-0.37c-0.151-0.15-0.3-0.38-0.38-0.6
		c-0.07-0.22-0.07-0.52-0.07-0.82c0-0.38,0.07-0.67,0.219-1.05c0.151-0.3,0.301-0.6,0.531-0.82c0.219-0.22,0.52-0.45,0.74-0.6
		c0.3-0.15,0.599-0.22,0.979-0.22c0.301,0,0.521,0.07,0.821,0.15c0.219,0.07,0.45,0.22,0.6,0.45
		C116.619,30.01,116.689,30.23,116.769,30.53"/>
	<path class="st1" d="M113.028,23.209c0.07,0.07,0.07,0.15-0.23,0.3l-6.2,8.07l-0.82,4.33c-0.08,0.3-0.38,0.53-0.68,0.53h-2.39
		c-0.07,0-0.07,0-0.15-0.08c-0.07-0.07-0.07-0.15-0.07-0.22l0.97-4.71l-3.14-8.07c-0.07-0.08-0.07-0.15,0-0.23
		c0.08-0.07,0.15-0.07,0.22-0.07h2.99c0.08,0,0.23,0.07,0.23,0.15c0,0,1.64,4.78,1.72,5.23c0.3-0.52,3.66-5.31,3.66-5.31
		c0.08,0,0.15-0.07,0.23-0.07h3.43C112.878,23.06,112.948,23.13,113.028,23.209"/>
	<path class="st1" d="M99.948,26.939c0.15,0.08,0.15,0.23,0.07,0.23l-0.82,1.87c-0.08,0.07-0.08,0.15-0.15,0.15h-0.15
		c-0.9-0.38-1.72-0.6-2.389-0.53c-0.601,0-0.601,0.38-0.601,0.45c0,0.23,0.08,0.3,0.75,0.68l1.19,0.59
		c1.27,0.68,1.871,1.35,1.95,2.54c0.15,1.95-1.05,3.14-3.37,3.37c-1.49,0.07-2.99-0.3-4.33-1.2c-0.08-0.07-0.15-0.22-0.08-0.3
		l1.05-1.87c0.07,0,0.07-0.07,0.151-0.07c0.069-0.07,0.069,0,0.149,0c1.12,0.67,2.09,0.97,2.91,0.9c0.231,0,0.68-0.15,0.68-0.53
		c0-0.15-0.08-0.3-0.6-0.59l-1.349-0.68c-1.191-0.6-1.871-1.42-1.941-2.54c-0.15-1.79,1.05-3.06,3.14-3.21
		C97.408,26.12,98.678,26.35,99.948,26.939"/>
	<path class="st1" d="M87.158,26.27c2.92,0,4.79,1.8,4.86,4.56c0,3.29-2.39,5.61-5.68,5.61c-2.99,0-4.86-1.8-4.86-4.56
		C81.478,28.59,83.878,26.27,87.158,26.27 M86.488,33.52c1.42,0,2.47-1.04,2.47-2.54c0-1.19-0.75-1.87-2.02-1.87
		c-1.42,0-2.47,1.05-2.47,2.54C84.468,32.85,85.218,33.52,86.488,33.52"/>
	<path class="st0" d="M88.958,30.979c0,1.5-1.05,2.54-2.47,2.54c-1.269,0-2.019-0.67-2.019-1.87c0-1.49,1.05-2.54,2.469-2.54
		C88.208,29.11,88.958,29.79,88.958,30.979"/>
	<path class="st1" d="M81.859,23.06l-2.54,12.78c0,0.07-0.151,0.15-0.231,0.15h-2.39c-0.08,0-0.08,0-0.15-0.08
		c-0.069,0-0.069-0.07-0.069-0.14c0.069-0.3,0.069-0.53,0.139-0.75c-0.74,0.82-1.79,1.27-2.91,1.27c-2.389,0-4.04-1.8-4.04-4.49
		c0-3.21,2.17-5.6,5.091-5.6c1.489,0,2.689,0.67,3.289,1.72c0-0.3,0.971-4.94,0.971-4.94c0-0.07,0.149-0.15,0.22-0.15h2.389
		c0.08,0,0.08,0,0.151,0.08C81.859,22.98,81.859,23.06,81.859,23.06 M77.219,31.28c0.079-0.37,0.079-0.67,0-0.97
		c0-0.3-0.15-0.52-0.301-0.75c-0.149-0.15-0.37-0.3-0.59-0.45c-0.229-0.07-0.53-0.15-0.83-0.15c-0.3,0-0.67,0.08-0.969,0.23
		c-0.3,0.15-0.6,0.37-0.821,0.6c-0.3,0.29-0.449,0.59-0.599,0.89c-0.151,0.3-0.22,0.67-0.22,1.05c-0.08,0.3,0,0.6,0.069,0.82
		c0.08,0.23,0.231,0.45,0.38,0.6c0.151,0.15,0.37,0.3,0.591,0.37c0.449,0.23,1.13,0.23,1.649,0c0.3-0.15,0.521-0.3,0.75-0.52
		c0.22-0.22,0.441-0.45,0.59-0.75C77.069,31.95,77.149,31.65,77.219,31.28"/>
	<path class="st0" d="M77.219,30.31c0.079,0.3,0.079,0.6,0,0.97c-0.07,0.37-0.15,0.67-0.301,0.97c-0.149,0.3-0.37,0.53-0.59,0.75
		c-0.229,0.22-0.45,0.37-0.75,0.52c-0.519,0.23-1.2,0.23-1.649,0c-0.221-0.07-0.44-0.22-0.591-0.37c-0.149-0.15-0.3-0.37-0.38-0.6
		c-0.069-0.22-0.149-0.52-0.069-0.82c0-0.38,0.069-0.75,0.22-1.05c0.15-0.3,0.299-0.6,0.599-0.89c0.221-0.23,0.521-0.45,0.821-0.6
		c0.299-0.15,0.669-0.23,0.969-0.23c0.3,0,0.601,0.08,0.83,0.15c0.22,0.15,0.441,0.3,0.59,0.45
		C77.069,29.79,77.219,30.01,77.219,30.31"/>
	<path class="st1" d="M68.179,22.459c0.97,0,1.569,0.52,1.489,1.49c0,1.13-0.819,1.95-1.939,1.95c-0.97,0-1.5-0.6-1.5-1.5
		C66.229,23.28,67.059,22.459,68.179,22.459"/>
	<path class="st1" d="M68.849,27.54l-1.721,8.37c0,0.08-0.149,0.15-0.219,0.15h-2.47c-0.07,0-0.07,0-0.151-0.07
		c-0.069,0-0.069-0.08-0.069-0.15l1.72-8.37c0-0.08,0.149-0.15,0.22-0.15h2.469c0,0,0.071,0,0.151,0.07
		C68.849,27.39,68.849,27.47,68.849,27.54"/>
	<path class="st1" d="M64.808,22.91v0.22l-2.46,12.71c0,0.07-0.15,0.15-0.23,0.15h-2.39c-0.07,0-0.07,0-0.15-0.08
		c-0.07,0-0.07-0.07-0.07-0.14c0.07-0.3,0.07-0.53,0.15-0.75c-0.75,0.82-1.8,1.27-2.92,1.27c-2.39,0-4.03-1.8-4.03-4.49
		c0-3.21,2.16-5.6,5.08-5.6c1.49,0,2.69,0.67,3.29,1.72c0-0.3,0.969-4.94,0.969-4.94c0-0.07,0.151-0.15,0.221-0.15h2.4
		C64.738,22.83,64.738,22.83,64.808,22.91 M60.108,31.28c0.07-0.37,0.07-0.67,0-0.97c0-0.3-0.15-0.52-0.3-0.75
		c-0.15-0.15-0.38-0.3-0.6-0.45c-0.23-0.07-0.52-0.15-0.82-0.15c-0.301,0-0.68,0.08-0.98,0.23c-0.29,0.15-0.59,0.37-0.821,0.6
		c-0.299,0.29-0.449,0.59-0.599,0.89c-0.151,0.3-0.22,0.67-0.22,1.05c-0.07,0.3,0,0.6,0.069,0.82c0.081,0.23,0.231,0.45,0.381,0.6
		s0.369,0.3,0.6,0.37c0.44,0.23,1.12,0.23,1.64,0c0.3-0.15,0.52-0.3,0.75-0.52c0.22-0.22,0.45-0.45,0.6-0.75
		C59.958,31.95,60.028,31.65,60.108,31.28"/>
	<path class="st0" d="M60.108,30.31c0.07,0.3,0.07,0.6,0,0.97c-0.08,0.37-0.15,0.67-0.3,0.97s-0.38,0.53-0.6,0.75
		c-0.23,0.22-0.45,0.37-0.75,0.52c-0.52,0.23-1.2,0.23-1.64,0c-0.231-0.07-0.45-0.22-0.6-0.37c-0.15-0.15-0.3-0.37-0.381-0.6
		c-0.069-0.22-0.139-0.52-0.069-0.82c0-0.38,0.069-0.75,0.22-1.05c0.15-0.3,0.3-0.6,0.599-0.89c0.231-0.23,0.531-0.45,0.821-0.6
		c0.3-0.15,0.679-0.23,0.98-0.23c0.3,0,0.59,0.08,0.82,0.15c0.22,0.15,0.45,0.3,0.6,0.45C59.958,29.79,60.108,30.01,60.108,30.31"/>
	<path class="st1" d="M51.509,30.31c0,0.52-0.08,1.04-0.231,1.72c0,0.07-0.139,0.15-0.219,0.15h-6.8
		c0.069,1.12,0.819,1.72,2.239,1.72c0.67,0,1.271-0.15,1.941-0.53c0.08-0.07,0.149-0.07,0.229,0l1.49,1.57
		c0.151,0.08,0.08,0.23,0,0.3c-1.189,0.75-2.389,1.12-3.729,1.12c-3.071,0-4.941-1.79-4.941-4.56c0-3.29,2.39-5.6,5.611-5.6
		C49.858,26.2,51.509,27.77,51.509,30.31 M44.628,30.01h4.341c0-1.12-0.681-1.65-1.87-1.65C45.899,28.36,45.078,28.96,44.628,30.01"
		/>
	<path class="st0" d="M48.969,30.01h-4.341c0.45-1.05,1.271-1.65,2.471-1.65C48.288,28.36,48.969,28.89,48.969,30.01"/>
	<path class="st1" d="M36.628,22.83c2.92,0,4.64,1.5,4.64,4.04c0,2.92-2.09,4.71-5.46,4.71h-2.91c0,0.07-0.53,2.62-0.75,3.74
		c-0.15,0.67-0.82,0.67-0.82,0.59h-1.27h-0.98c-0.069,0-0.069,0-0.15-0.07c-0.07,0-0.07-0.07-0.07-0.15l2.54-12.71
		c0-0.07,0.15-0.15,0.23-0.15H36.628z M38.198,27.02c0-0.9-0.59-1.42-1.72-1.42h-2.31c0,0.07-0.68,3.21-0.68,3.29h2.47
		C37.378,28.89,38.128,28.22,38.198,27.02"/>
	<path class="st0" d="M36.478,25.6c1.13,0,1.72,0.52,1.72,1.42c-0.071,1.2-0.821,1.87-2.241,1.87h-2.469
		c0-0.08,0.679-3.22,0.679-3.29H36.478z"/>
</g>
</svg>
