<?xml version="1.0" encoding="utf-8"?>
<!-- Generator: Adobe Illustrator 19.2.1, SVG Export Plug-In . SVG Version: 6.00 Build 0)  -->
<svg version="1.1" id="Capa_1" xmlns="http://www.w3.org/2000/svg" xmlns:xlink="http://www.w3.org/1999/xlink" x="0px" y="0px"
	 viewBox="0 0 146.62 59.66" style="enable-background:new 0 0 146.62 59.66;" xml:space="preserve">
<style type="text/css">
	.st0{clip-path:url(#SVGID_2_);fill:#FF5345;}
	.st1{clip-path:url(#SVGID_2_);fill:#E5E5E4;}
</style>
<g>
	<defs>
		<rect id="SVGID_1_" width="146.62" height="59.66"/>
	</defs>
	<clipPath id="SVGID_2_">
		<use xlink:href="#SVGID_1_"  style="overflow:visible;"/>
	</clipPath>
	<path class="st0" d="M146.62,6.84v45.98c0,3.76-3.08,6.84-6.84,6.84H6.83C3.07,59.66,0,56.58,0,52.82V6.84C0,3.08,3.07,0,6.83,0
		h132.95C143.54,0,146.62,3.08,146.62,6.84 M100.9,30.9c0.13-0.2,0.13-0.42,0.01-0.61c-0.12-0.18-0.35-0.31-0.59-0.31
		c-0.23,0-0.44,0.11-0.57,0.3c-0.14,0.21-0.33,0.47-0.54,0.75c-0.23,0.32-0.48,0.62-0.739,0.9c-0.271,0.28-0.521,0.52-0.761,0.72
		c-0.25,0.21-0.409,0.25-0.5,0.25c-0.069,0-0.18,0-0.21-0.31c-0.029-0.33,0.02-0.76,0.141-1.27c0.129-0.53,0.309-1.12,0.549-1.75
		c0.241-0.64,0.48-1.25,0.72-1.81c0.24-0.59,0.45-1.08,0.641-1.5c0.179-0.41,0.3-0.68,0.34-0.8c0.149-0.34,0.099-0.68-0.151-0.98
		c-0.229-0.27-0.55-0.46-0.92-0.56c-0.38-0.1-0.78-0.11-1.2-0.02c-0.45,0.1-0.81,0.36-1.06,0.78c-0.23,0.36-0.52,0.94-0.87,1.71
		c-0.35,0.77-0.69,1.62-1.009,2.54c-0.191,0.56-0.371,1.12-0.531,1.69c-0.27,0.95-0.82,1.79-1.59,2.41
		c-0.27,0.23-0.56,0.44-0.86,0.63c-0.13,0.09-0.26,0.17-0.39,0.24c-0.049,0.03-0.089-0.03-0.06-0.06c0.23-0.31,0.46-0.63,0.681-0.98
		c0.449-0.73,0.87-1.59,1.229-2.57c0.38-1.04,0.62-1.99,0.72-2.82c0.091-0.84,0.06-1.57-0.1-2.18c-0.16-0.63-0.44-1.12-0.83-1.46
		c-0.41-0.36-0.91-0.54-1.5-0.54c-0.689,0-1.32,0.18-1.88,0.54c-0.389,0.25-0.74,0.52-1.059,0.82c-0.031,0.02-0.051,0.02-0.071-0.01
		c-0.07-0.11-0.17-0.22-0.29-0.32c-0.27-0.22-0.599-0.38-0.969-0.45c-0.38-0.07-0.761-0.04-1.13,0.08c-0.401,0.13-0.7,0.4-0.881,0.8
		c-0.36,0.78-0.739,1.68-1.13,2.69c-0.39,1.01-0.77,2.06-1.13,3.13c-0.04,0.12-0.08,0.24-0.12,0.35c-0.3,0.92-0.87,1.72-1.63,2.3
		c-0.2,0.16-0.41,0.3-0.62,0.44c-0.14,0.09-0.27,0.17-0.399,0.24c-0.011,0.01-0.021,0.01-0.021,0.01c-0.04,0-0.06-0.05-0.04-0.07
		c0.23-0.31,0.46-0.63,0.681-0.98c0.449-0.72,0.869-1.59,1.229-2.57c0.39-1.04,0.63-1.99,0.72-2.82c0.091-0.84,0.06-1.58-0.1-2.18
		c-0.16-0.63-0.44-1.12-0.83-1.46c-0.41-0.36-0.91-0.54-1.5-0.54c-0.69,0-1.32,0.18-1.88,0.54c-0.389,0.25-0.74,0.52-1.06,0.82
		c-0.03,0.02-0.05,0.02-0.07-0.01c-0.07-0.11-0.169-0.22-0.29-0.32c-0.27-0.22-0.6-0.38-0.969-0.45
		c-0.381-0.07-0.761-0.04-1.131,0.08c-0.4,0.13-0.69,0.4-0.88,0.8c-0.359,0.78-0.739,1.68-1.13,2.69c-0.37,0.95-0.72,1.93-1.06,2.92
		c-0.25,0.75-0.629,1.35-1.2,1.91c-0.15,0.14-0.29,0.27-0.429,0.38c-0.25,0.21-0.411,0.25-0.5,0.25c-0.061,0-0.181,0-0.21-0.31
		c-0.031-0.33,0.019-0.76,0.149-1.27c0.12-0.53,0.311-1.12,0.54-1.75c0.24-0.63,0.481-1.24,0.72-1.81c0.24-0.58,0.46-1.08,0.64-1.5
		c0.19-0.42,0.3-0.68,0.35-0.8c0.15-0.34,0.09-0.68-0.16-0.98c-0.23-0.27-0.55-0.46-0.94-0.56c-0.379-0.1-0.78-0.11-1.19-0.02
		c-0.439,0.1-0.8,0.36-1.05,0.78c-0.05,0.08-0.099,0.17-0.16,0.27c-0.019,0.04-0.069,0.03-0.08-0.01c-0.05-0.23-0.13-0.45-0.23-0.64
		c-0.16-0.3-0.4-0.55-0.709-0.73c-0.311-0.19-0.701-0.28-1.17-0.28c-1.101,0-2.221,0.51-3.33,1.51c-1.081,0.99-1.981,2.56-2.67,4.68
		c-0.321,1.02-0.511,1.96-0.561,2.8c-0.05,0.85,0.021,1.59,0.2,2.18c0.2,0.62,0.5,1.11,0.92,1.45c0.42,0.35,0.93,0.53,1.521,0.53
		c0.429,0,0.84-0.07,1.219-0.22c0.371-0.14,0.71-0.32,1.02-0.54c0.23-0.17,0.45-0.36,0.65-0.57c0.14-0.15,0.39-0.09,0.451,0.11
		c0.059,0.22,0.16,0.42,0.269,0.59c0.29,0.42,0.75,0.63,1.36,0.63c0.67,0,1.36-0.25,2.031-0.75c0.309-0.24,0.619-0.49,0.92-0.76
		c0.059-0.06,0.17,0,0.139,0.09c-0.17,0.57-0.33,1.11-0.469,1.61c-0.231,0.84-0.42,1.56-0.571,2.15c-0.19,0.79-0.21,1.01-0.21,1.11
		c0,0.48,0.151,0.89,0.441,1.22c0.29,0.32,0.619,0.55,0.989,0.68c0.24,0.08,0.48,0.13,0.71,0.13c0.12,0,0.24-0.02,0.36-0.04
		c0.27-0.06,0.6-0.24,0.7-0.74v-0.01c0.04-0.26,0.11-0.62,0.22-1.06c0.111-0.46,0.25-0.98,0.401-1.55c0.16-0.56,0.33-1.19,0.54-1.93
		c0.099-0.33,0.199-0.69,0.309-1.06c0.021-0.07,0.12-0.08,0.16-0.02c0.05,0.09,0.111,0.17,0.17,0.25c0.33,0.45,0.87,0.68,1.59,0.68
		c0.15,0.01,0.3,0.01,0.441,0.01c1.059,0,2.059-0.18,2.969-0.54c0.651-0.25,1.26-0.55,1.821-0.9c0.179-0.11,0.37-0.23,0.54-0.35
		c0.069-0.05,0.159,0.02,0.139,0.1c-0.2,0.67-0.389,1.29-0.55,1.87c-0.23,0.85-0.43,1.57-0.57,2.15c-0.189,0.79-0.21,1.01-0.21,1.11
		c0,0.48,0.151,0.89,0.441,1.22c0.29,0.32,0.62,0.55,0.989,0.68c0.24,0.08,0.48,0.13,0.7,0.13c0.13,0,0.25-0.02,0.37-0.04
		c0.26-0.06,0.6-0.24,0.7-0.74v-0.01c0.04-0.26,0.111-0.62,0.22-1.06c0.11-0.46,0.25-0.98,0.4-1.55c0.161-0.57,0.331-1.2,0.541-1.93
		c0.099-0.34,0.2-0.69,0.309-1.06c0.021-0.07,0.12-0.08,0.16-0.02c0.05,0.09,0.111,0.17,0.17,0.25c0.33,0.45,0.87,0.68,1.59,0.68
		c0.15,0.01,0.29,0.01,0.44,0.01c1.06,0,2.06-0.18,2.97-0.54c1.01-0.4,1.93-0.91,2.72-1.51c0.141-0.1,0.27-0.2,0.4-0.3
		c0.06-0.05,0.14-0.01,0.14,0.07v0.1c0,0.63,0.13,1.15,0.4,1.54c0.29,0.42,0.741,0.63,1.35,0.63c0.681,0,1.37-0.25,2.051-0.75
		c0.649-0.48,1.259-1.04,1.819-1.67c0.55-0.62,1.04-1.25,1.44-1.85C100.471,31.56,100.75,31.15,100.9,30.9 M101.471,20.23
		c0-1.37-1.12-2.49-2.491-2.49c-1.379,0-2.5,1.12-2.5,2.49c0,1.38,1.121,2.5,2.5,2.5C100.351,22.73,101.471,21.61,101.471,20.23
		 M63.58,37.98c0.25-0.22,0.29-0.6,0.101-0.87c-0.201-0.28-0.571-0.36-0.861-0.19c-0.09,0.05-0.179,0.1-0.269,0.15
		c-0.241,0.12-0.471,0.23-0.711,0.32c-0.23,0.08-0.46,0.16-0.68,0.21c-0.229,0.05-0.45,0.09-0.66,0.11c-0.22,0.01-0.43,0.02-0.64,0
		c-0.2-0.01-0.41-0.04-0.61-0.08c-0.19-0.05-0.39-0.11-0.58-0.18c-0.19-0.08-0.38-0.17-0.56-0.28c-0.19-0.11-0.37-0.24-0.54-0.38
		c-0.17-0.15-0.349-0.31-0.51-0.49c-0.16-0.18-0.32-0.38-0.47-0.59c-0.15-0.22-0.3-0.45-0.43-0.7c-0.14-0.26-0.269-0.53-0.38-0.82
		c-0.059-0.14-0.12-0.29-0.17-0.45c-0.09-0.24-0.17-0.5-0.24-0.76c-0.09-0.34-0.17-0.7-0.24-1.06c-0.07-0.38-0.119-0.77-0.159-1.18
		c-0.04-0.35-0.071-0.72-0.08-1.09c-0.011-0.05,0.009-0.07,0.059-0.09c0.74-0.23,1.46-0.53,2.13-0.87c0.82-0.41,1.55-0.91,2.16-1.47
		c0.611-0.56,1.111-1.21,1.47-1.91c0.36-0.72,0.551-1.5,0.551-2.34c0-0.78-0.21-1.48-0.631-2.07c-0.4-0.58-0.94-1.08-1.6-1.47
		c-0.65-0.39-1.389-0.69-2.22-0.88c-0.81-0.2-1.65-0.3-2.49-0.3c-1.46,0-2.79,0.25-3.94,0.73c-1.14,0.48-2.1,1.06-2.869,1.73
		c-0.761,0.67-1.351,1.38-1.75,2.12c-0.41,0.75-0.611,1.37-0.611,1.89c0,0.61,0.14,1.1,0.42,1.46c0.27,0.36,0.58,0.6,0.92,0.73
		c0.34,0.13,0.68,0.14,0.99,0.04c0.35-0.11,0.54-0.37,0.54-0.74c0-0.51,0.15-1.12,0.451-1.82c0.299-0.71,0.719-1.39,1.269-2.02
		c0.53-0.64,1.191-1.18,1.95-1.63c0.75-0.43,1.59-0.65,2.51-0.65c0.87,0,1.561,0.21,2.05,0.62c0.48,0.4,0.721,1.05,0.721,1.93
		c0,0.69-0.141,1.34-0.411,1.94c-0.28,0.61-0.65,1.16-1.1,1.66c-0.449,0.49-0.97,0.93-1.54,1.29c-0.34,0.23-0.699,0.42-1.06,0.59
		c-0.07,0.03-0.15-0.04-0.12-0.11c0.271-0.76,0.561-1.54,0.85-2.32c0.37-0.97,0.78-1.96,1.23-2.96c0.17-0.39-0.05-0.85-0.469-0.95
		c-0.691-0.16-1.511-0.19-2.451-0.08c-0.42,0.05-0.78,0.31-0.95,0.69c-0.53,1.17-1.03,2.34-1.46,3.52c-0.51,1.36-0.96,2.64-1.33,3.8
		c-0.359,1.17-0.649,2.21-0.85,3.08c-0.209,0.9-0.31,1.53-0.31,1.93c0,0.49,0.17,0.9,0.5,1.23c0.32,0.32,0.681,0.54,1.08,0.67
		c0.4,0.13,0.79,0.16,1.16,0.09c0.42-0.08,0.691-0.34,0.76-0.74c0.04-0.23,0.11-0.54,0.21-0.93c0.1-0.4,0.21-0.84,0.33-1.33
		c0.101-0.38,0.2-0.79,0.32-1.2c0.031-0.1,0.17-0.09,0.18,0.01c0.03,0.32,0.07,0.64,0.12,0.94c0.05,0.34,0.12,0.68,0.2,1.01
		c0.071,0.33,0.16,0.65,0.25,0.95c0.1,0.31,0.2,0.61,0.321,0.88c0.109,0.29,0.239,0.56,0.37,0.82c0.13,0.26,0.279,0.51,0.429,0.74
		c0.15,0.24,0.321,0.46,0.491,0.67s0.359,0.4,0.54,0.58c0.159,0.15,0.329,0.29,0.489,0.42c0.21,0.15,0.431,0.29,0.65,0.42
		c0.23,0.12,0.47,0.23,0.71,0.31c0.12,0.05,0.25,0.09,0.37,0.12c0.121,0.04,0.25,0.07,0.38,0.09c0.25,0.06,0.52,0.09,0.79,0.1h0.23
		c0.19,0,0.39-0.01,0.58-0.03c0.28-0.03,0.56-0.07,0.841-0.14c0.279-0.07,0.569-0.16,0.859-0.27c0.28-0.11,0.58-0.23,0.87-0.38
		c0.14-0.08,0.29-0.16,0.43-0.24c0.28-0.16,0.57-0.34,0.85-0.53c0.291-0.2,0.59-0.43,0.89-0.68C63.33,38.2,63.45,38.09,63.58,37.98"
		/>
	<path class="st1" d="M100.91,30.29c0.12,0.19,0.12,0.41-0.01,0.61c-0.15,0.25-0.43,0.66-0.84,1.27c-0.4,0.6-0.89,1.23-1.44,1.85
		c-0.56,0.63-1.17,1.19-1.82,1.67c-0.68,0.5-1.37,0.75-2.05,0.75c-0.61,0-1.06-0.21-1.35-0.63c-0.271-0.39-0.4-0.91-0.4-1.54v-0.1
		c0-0.08-0.08-0.12-0.14-0.07c-0.13,0.1-0.26,0.2-0.4,0.3c-0.79,0.6-1.71,1.11-2.72,1.51c-0.91,0.36-1.91,0.54-2.97,0.54
		c-0.15,0-0.29,0-0.44-0.01c-0.72,0-1.26-0.23-1.59-0.68c-0.06-0.08-0.12-0.16-0.17-0.25c-0.04-0.06-0.14-0.05-0.16,0.02
		c-0.11,0.37-0.21,0.72-0.31,1.06c-0.21,0.73-0.38,1.36-0.54,1.93c-0.15,0.57-0.29,1.09-0.4,1.55c-0.11,0.44-0.18,0.8-0.22,1.06
		v0.01c-0.101,0.5-0.44,0.68-0.7,0.74c-0.12,0.02-0.24,0.04-0.37,0.04c-0.22,0-0.46-0.05-0.7-0.13c-0.37-0.13-0.7-0.36-0.99-0.68
		c-0.29-0.33-0.44-0.74-0.44-1.22c0-0.1,0.02-0.32,0.21-1.11c0.139-0.58,0.34-1.3,0.57-2.15c0.16-0.58,0.35-1.2,0.55-1.87
		c0.019-0.08-0.07-0.15-0.14-0.1c-0.17,0.12-0.36,0.24-0.54,0.35l-0.77-1.1c0,0,0.009,0,0.02-0.01c0.13-0.07,0.26-0.15,0.4-0.24
		c0.21-0.14,0.42-0.28,0.62-0.44c0.76-0.58,1.33-1.38,1.63-2.3c0.04-0.11,0.08-0.23,0.12-0.35c0.36-1.07,0.74-2.12,1.13-3.13
		s0.77-1.91,1.13-2.69c0.18-0.4,0.48-0.67,0.88-0.8c0.37-0.12,0.75-0.15,1.13-0.08c0.37,0.07,0.699,0.23,0.97,0.45
		c0.12,0.1,0.22,0.21,0.29,0.32c0.02,0.03,0.04,0.03,0.07,0.01c0.32-0.3,0.67-0.57,1.06-0.82c0.559-0.36,1.19-0.54,1.88-0.54
		c0.59,0,1.09,0.18,1.5,0.54c0.389,0.34,0.67,0.83,0.83,1.46c0.16,0.61,0.19,1.34,0.099,2.18c-0.099,0.83-0.339,1.78-0.719,2.82
		c-0.36,0.98-0.781,1.84-1.23,2.57c-0.22,0.35-0.45,0.67-0.68,0.98c-0.03,0.03,0.01,0.09,0.06,0.06c0.13-0.07,0.26-0.15,0.39-0.24
		c0.3-0.19,0.59-0.4,0.86-0.63c0.77-0.62,1.319-1.46,1.59-2.41c0.16-0.57,0.34-1.13,0.53-1.69c0.32-0.92,0.659-1.77,1.01-2.54
		c0.35-0.77,0.64-1.35,0.87-1.71c0.25-0.42,0.61-0.68,1.06-0.78c0.42-0.09,0.82-0.08,1.2,0.02c0.37,0.1,0.69,0.29,0.92,0.56
		c0.25,0.3,0.3,0.64,0.15,0.98c-0.04,0.12-0.16,0.39-0.34,0.8c-0.19,0.42-0.4,0.91-0.64,1.5c-0.24,0.56-0.48,1.17-0.72,1.81
		c-0.24,0.63-0.42,1.22-0.55,1.75c-0.12,0.51-0.17,0.94-0.14,1.27c0.03,0.31,0.14,0.31,0.21,0.31c0.09,0,0.25-0.04,0.5-0.25
		c0.24-0.2,0.49-0.44,0.76-0.72c0.26-0.28,0.51-0.58,0.74-0.9c0.21-0.28,0.4-0.54,0.54-0.75c0.129-0.19,0.339-0.3,0.57-0.3
		C100.56,29.98,100.79,30.11,100.91,30.29 M89.65,27.07c0.08-0.42,0.1-0.78,0.06-1.05c-0.04-0.3-0.13-0.37-0.16-0.38
		c-0.01,0-0.02-0.01-0.04-0.01c-0.03,0-0.12,0.02-0.29,0.13c-0.22,0.16-0.46,0.41-0.73,0.74c-0.27,0.34-0.55,0.77-0.85,1.27
		c-0.29,0.51-0.57,1.06-0.82,1.66c-0.26,0.61-0.47,1.2-0.64,1.75c-0.16,0.56-0.29,1.07-0.37,1.52c-0.07,0.43-0.09,0.79-0.06,1.07
		c0.04,0.3,0.14,0.36,0.16,0.37s0.03,0.01,0.04,0.01c0.03,0,0.13-0.01,0.29-0.13c0.22-0.16,0.46-0.41,0.73-0.75
		c0.27-0.35,0.55-0.78,0.83-1.28c0.289-0.51,0.57-1.07,0.85-1.67c0.25-0.6,0.46-1.19,0.63-1.74C89.45,28.02,89.57,27.51,89.65,27.07
		"/>
	<path class="st1" d="M98.981,17.74c1.37,0,2.49,1.12,2.49,2.49c0,1.38-1.12,2.5-2.49,2.5c-1.38,0-2.5-1.12-2.5-2.5
		C96.481,18.86,97.601,17.74,98.981,17.74"/>
	<path class="st0" d="M89.71,26.02c0.04,0.27,0.021,0.63-0.06,1.05c-0.08,0.44-0.2,0.95-0.37,1.51c-0.17,0.55-0.38,1.14-0.63,1.74
		c-0.28,0.6-0.56,1.16-0.849,1.67c-0.28,0.5-0.561,0.93-0.83,1.28c-0.271,0.34-0.511,0.59-0.731,0.75
		c-0.16,0.12-0.259,0.13-0.29,0.13c-0.01,0-0.019,0-0.04-0.01c-0.019-0.01-0.12-0.07-0.16-0.37c-0.029-0.28-0.01-0.64,0.061-1.07
		c0.08-0.45,0.21-0.96,0.37-1.52c0.17-0.55,0.38-1.14,0.639-1.75c0.25-0.6,0.531-1.15,0.821-1.66c0.299-0.5,0.58-0.93,0.849-1.27
		c0.271-0.33,0.51-0.58,0.731-0.74c0.17-0.11,0.26-0.13,0.29-0.13c0.019,0,0.029,0.01,0.04,0.01
		C89.58,25.65,89.67,25.72,89.71,26.02"/>
	<path class="st1" d="M82.11,25.29c0.16,0.6,0.19,1.34,0.1,2.18c-0.09,0.83-0.331,1.78-0.72,2.82c-0.361,0.98-0.78,1.85-1.23,2.57
		c-0.22,0.35-0.45,0.67-0.68,0.98c-0.02,0.02,0,0.07,0.04,0.07l0.77,1.1c-0.56,0.35-1.17,0.65-1.82,0.9
		c-0.91,0.36-1.91,0.54-2.97,0.54c-0.14,0-0.29,0-0.44-0.01c-0.72,0-1.26-0.23-1.59-0.68c-0.06-0.08-0.12-0.16-0.17-0.25
		c-0.04-0.06-0.14-0.05-0.16,0.02c-0.111,0.37-0.21,0.73-0.31,1.06c-0.21,0.74-0.38,1.37-0.54,1.93c-0.15,0.57-0.29,1.09-0.4,1.55
		c-0.111,0.44-0.18,0.8-0.22,1.06v0.01c-0.1,0.5-0.431,0.68-0.7,0.74c-0.12,0.02-0.24,0.04-0.36,0.04c-0.23,0-0.47-0.05-0.71-0.13
		c-0.371-0.13-0.7-0.36-0.99-0.68c-0.29-0.33-0.44-0.74-0.44-1.22c0-0.1,0.019-0.32,0.21-1.11c0.15-0.59,0.34-1.31,0.57-2.15
		c0.14-0.5,0.3-1.04,0.47-1.61c0.03-0.09-0.08-0.15-0.14-0.09c-0.301,0.27-0.61,0.52-0.92,0.76c-0.671,0.5-1.36,0.75-2.03,0.75
		c-0.61,0-1.07-0.21-1.36-0.63c-0.11-0.17-0.21-0.37-0.27-0.59c-0.06-0.2-0.31-0.26-0.45-0.11c-0.2,0.21-0.42,0.4-0.65,0.57
		c-0.31,0.22-0.65,0.4-1.02,0.54c-0.38,0.15-0.79,0.22-1.22,0.22c-0.59,0-1.1-0.18-1.52-0.53c-0.42-0.34-0.72-0.83-0.92-1.45
		c-0.18-0.59-0.25-1.33-0.2-2.18c0.05-0.84,0.24-1.78,0.56-2.8c0.69-2.12,1.59-3.69,2.67-4.68c1.11-1,2.23-1.51,3.33-1.51
		c0.47,0,0.86,0.09,1.17,0.28c0.31,0.18,0.55,0.43,0.71,0.73c0.1,0.19,0.18,0.41,0.23,0.64c0.01,0.04,0.06,0.05,0.08,0.01
		c0.06-0.1,0.11-0.19,0.16-0.27c0.25-0.42,0.61-0.68,1.05-0.78c0.41-0.09,0.81-0.08,1.19,0.02c0.39,0.1,0.71,0.29,0.94,0.56
		c0.25,0.3,0.31,0.64,0.16,0.98c-0.05,0.12-0.16,0.38-0.35,0.8c-0.181,0.42-0.4,0.92-0.641,1.5c-0.239,0.57-0.479,1.18-0.719,1.81
		c-0.23,0.63-0.42,1.22-0.54,1.75c-0.13,0.51-0.18,0.94-0.15,1.27c0.03,0.31,0.15,0.31,0.21,0.31c0.09,0,0.25-0.04,0.5-0.25
		c0.14-0.11,0.28-0.24,0.43-0.38c0.57-0.56,0.95-1.16,1.2-1.91c0.34-0.99,0.69-1.97,1.06-2.92c0.39-1.01,0.77-1.91,1.13-2.69
		c0.19-0.4,0.48-0.67,0.879-0.8c0.371-0.12,0.75-0.15,1.131-0.08c0.369,0.07,0.7,0.23,0.97,0.45c0.12,0.1,0.22,0.21,0.29,0.32
		c0.02,0.03,0.04,0.03,0.069,0.01c0.321-0.3,0.671-0.57,1.061-0.82c0.56-0.36,1.189-0.54,1.88-0.54c0.59,0,1.09,0.18,1.5,0.54
		C81.67,24.17,81.95,24.66,82.11,25.29 M78.48,27.07c0.08-0.42,0.1-0.78,0.06-1.05c-0.04-0.3-0.13-0.37-0.161-0.38
		c-0.009,0-0.019-0.01-0.04-0.01c-0.029,0-0.119,0.02-0.289,0.13c-0.22,0.16-0.461,0.41-0.73,0.74c-0.26,0.34-0.55,0.77-0.85,1.27
		c-0.29,0.5-0.57,1.06-0.82,1.66c-0.26,0.61-0.47,1.2-0.64,1.75c-0.16,0.56-0.29,1.07-0.37,1.52c-0.07,0.43-0.09,0.79-0.051,1.07
		c0.04,0.3,0.131,0.36,0.161,0.37c0.01,0.01,0.02,0.01,0.03,0.01c0.04,0,0.13-0.01,0.29-0.13c0.22-0.16,0.47-0.41,0.73-0.75
		c0.27-0.35,0.55-0.78,0.84-1.28c0.28-0.51,0.56-1.07,0.84-1.67c0.25-0.6,0.47-1.18,0.63-1.74C78.28,28.02,78.4,27.51,78.48,27.07
		 M66.4,27.05c0.05-0.44,0.04-0.8-0.01-1.07c-0.07-0.31-0.17-0.38-0.2-0.39c-0.01-0.01-0.02-0.01-0.03-0.01
		c-0.031,0-0.12,0.01-0.27,0.13c-0.21,0.15-0.44,0.4-0.69,0.74c-0.25,0.35-0.5,0.78-0.76,1.28c-0.25,0.5-0.5,1.07-0.74,1.67
		c-0.23,0.6-0.42,1.19-0.56,1.74c-0.13,0.56-0.22,1.06-0.261,1.5c-0.04,0.43-0.029,0.79,0.011,1.07c0.05,0.3,0.15,0.37,0.18,0.38
		c0.01,0,0.019,0.01,0.04,0.01c0.03,0,0.11-0.02,0.269-0.13c0.201-0.16,0.431-0.4,0.681-0.74c0.25-0.34,0.51-0.76,0.76-1.26
		c0.26-0.51,0.5-1.07,0.74-1.67c0.23-0.6,0.42-1.18,0.56-1.74C66.26,28,66.35,27.49,66.4,27.05"/>
	<path class="st0" d="M78.54,26.02c0.04,0.27,0.021,0.63-0.06,1.05c-0.08,0.44-0.2,0.95-0.37,1.51c-0.16,0.56-0.38,1.14-0.63,1.74
		c-0.28,0.6-0.56,1.16-0.839,1.67c-0.29,0.5-0.571,0.93-0.84,1.28c-0.261,0.34-0.511,0.59-0.731,0.75
		c-0.16,0.12-0.25,0.13-0.29,0.13c-0.01,0-0.019,0-0.03-0.01c-0.029-0.01-0.12-0.07-0.16-0.37c-0.039-0.28-0.02-0.64,0.051-1.07
		c0.08-0.45,0.21-0.96,0.37-1.52c0.17-0.55,0.38-1.14,0.639-1.75c0.25-0.6,0.531-1.16,0.821-1.66c0.299-0.5,0.59-0.93,0.849-1.27
		c0.27-0.33,0.51-0.58,0.731-0.74c0.17-0.11,0.26-0.13,0.289-0.13c0.02,0,0.03,0.01,0.04,0.01C78.41,25.65,78.5,25.72,78.54,26.02"
		/>
	<path class="st0" d="M66.391,25.98c0.05,0.27,0.06,0.63,0.01,1.07s-0.14,0.95-0.281,1.51c-0.139,0.56-0.33,1.14-0.559,1.74
		c-0.24,0.6-0.481,1.16-0.74,1.67c-0.25,0.5-0.51,0.92-0.76,1.26c-0.25,0.34-0.481,0.58-0.681,0.74
		c-0.159,0.11-0.239,0.13-0.269,0.13c-0.021,0-0.031-0.01-0.04-0.01c-0.031-0.01-0.13-0.08-0.18-0.38
		c-0.04-0.28-0.051-0.64-0.011-1.07c0.04-0.44,0.131-0.94,0.261-1.5c0.14-0.55,0.33-1.14,0.56-1.74c0.24-0.6,0.49-1.17,0.74-1.67
		c0.26-0.5,0.51-0.93,0.76-1.28c0.25-0.34,0.48-0.59,0.69-0.74c0.149-0.12,0.239-0.13,0.27-0.13c0.009,0,0.02,0,0.03,0.01
		C66.221,25.6,66.321,25.67,66.391,25.98"/>
	<path class="st1" d="M63.681,37.11c0.189,0.27,0.149,0.65-0.101,0.87c-0.129,0.11-0.25,0.22-0.379,0.32
		c-0.3,0.25-0.6,0.48-0.89,0.68c-0.28,0.19-0.57,0.37-0.851,0.53c-0.139,0.08-0.29,0.16-0.429,0.24c-0.29,0.15-0.59,0.27-0.871,0.38
		c-0.29,0.11-0.58,0.2-0.859,0.27c-0.28,0.07-0.56,0.11-0.841,0.14c-0.189,0.02-0.389,0.03-0.58,0.03h-0.229
		c-0.271-0.01-0.54-0.04-0.79-0.1c-0.13-0.02-0.26-0.05-0.38-0.09c-0.12-0.03-0.25-0.07-0.37-0.12c-0.241-0.08-0.481-0.19-0.71-0.31
		c-0.22-0.13-0.441-0.27-0.651-0.42c-0.16-0.13-0.33-0.27-0.489-0.42c-0.181-0.18-0.37-0.37-0.54-0.58s-0.341-0.43-0.49-0.67
		c-0.151-0.23-0.3-0.48-0.43-0.74c-0.131-0.26-0.261-0.53-0.37-0.82c-0.12-0.27-0.221-0.57-0.32-0.88c-0.09-0.3-0.18-0.62-0.25-0.95
		c-0.08-0.33-0.151-0.67-0.201-1.01c-0.049-0.3-0.089-0.62-0.12-0.94c-0.009-0.1-0.149-0.11-0.179-0.01
		c-0.12,0.41-0.22,0.82-0.321,1.2c-0.12,0.49-0.229,0.93-0.33,1.33c-0.099,0.39-0.17,0.7-0.21,0.93c-0.069,0.4-0.34,0.66-0.759,0.74
		c-0.371,0.07-0.76,0.04-1.161-0.09c-0.399-0.13-0.759-0.35-1.08-0.67c-0.33-0.33-0.5-0.74-0.5-1.23c0-0.4,0.101-1.03,0.311-1.93
		c0.2-0.87,0.49-1.91,0.849-3.08c0.371-1.16,0.821-2.44,1.331-3.8c0.429-1.18,0.929-2.35,1.46-3.52c0.169-0.38,0.53-0.64,0.95-0.69
		c0.939-0.11,1.759-0.08,2.45,0.08c0.42,0.1,0.64,0.56,0.47,0.95c-0.451,1-0.861,1.99-1.231,2.96c-0.289,0.78-0.579,1.56-0.849,2.32
		c-0.031,0.07,0.049,0.14,0.12,0.11c0.36-0.17,0.719-0.36,1.059-0.59c0.571-0.36,1.091-0.8,1.54-1.29
		c0.45-0.5,0.821-1.05,1.101-1.66c0.269-0.6,0.41-1.25,0.41-1.94c0-0.88-0.24-1.53-0.721-1.93c-0.489-0.41-1.179-0.62-2.049-0.62
		c-0.92,0-1.76,0.22-2.51,0.65c-0.76,0.45-1.42,0.99-1.95,1.63c-0.55,0.63-0.97,1.31-1.27,2.02c-0.301,0.7-0.45,1.31-0.45,1.82
		c0,0.37-0.191,0.63-0.54,0.74c-0.311,0.1-0.651,0.09-0.99-0.04c-0.34-0.13-0.651-0.37-0.92-0.73c-0.281-0.36-0.42-0.85-0.42-1.46
		c0-0.52,0.2-1.14,0.61-1.89c0.4-0.74,0.989-1.45,1.75-2.12c0.77-0.67,1.73-1.25,2.869-1.73c1.151-0.48,2.481-0.73,3.941-0.73
		c0.839,0,1.679,0.1,2.49,0.3c0.83,0.19,1.569,0.49,2.22,0.88c0.66,0.39,1.2,0.89,1.599,1.47c0.421,0.59,0.631,1.29,0.631,2.07
		c0,0.84-0.19,1.62-0.551,2.34c-0.359,0.7-0.859,1.35-1.469,1.91c-0.611,0.56-1.34,1.06-2.161,1.47
		c-0.67,0.34-1.389,0.64-2.129,0.87c-0.05,0.02-0.071,0.04-0.06,0.09c0.01,0.37,0.04,0.74,0.08,1.09c0.04,0.41,0.09,0.8,0.159,1.18
		c0.071,0.36,0.151,0.72,0.24,1.06c0.071,0.26,0.151,0.52,0.241,0.76c0.049,0.16,0.11,0.31,0.17,0.45
		c0.11,0.29,0.24,0.56,0.379,0.82c0.13,0.25,0.281,0.48,0.43,0.7c0.151,0.21,0.311,0.41,0.471,0.59c0.16,0.18,0.34,0.34,0.51,0.49
		c0.17,0.14,0.349,0.27,0.54,0.38c0.179,0.11,0.37,0.2,0.559,0.28c0.191,0.07,0.391,0.13,0.58,0.18c0.201,0.04,0.41,0.07,0.611,0.08
		c0.21,0.02,0.42,0.01,0.639,0c0.21-0.02,0.431-0.06,0.66-0.11c0.22-0.05,0.451-0.13,0.68-0.21c0.24-0.09,0.471-0.2,0.711-0.32
		c0.09-0.05,0.18-0.1,0.27-0.15C63.111,36.75,63.481,36.83,63.681,37.11"/>
</g>
</svg>
